<?xml version="1.0" encoding="utf-8"?>
<!-- Generator: Adobe Illustrator 22.0.1, SVG Export Plug-In . SVG Version: 6.00 Build 0)  -->
<!DOCTYPE svg PUBLIC "-//W3C//DTD SVG 1.1//EN" "http://www.w3.org/Graphics/SVG/1.1/DTD/svg11.dtd">
<svg version="1.1" id="Layer_1" xmlns="http://www.w3.org/2000/svg" xmlns:xlink="http://www.w3.org/1999/xlink" x="0px" y="0px"
	 viewBox="0 0 35.8 9.5" enable-background="new 0 0 35.8 9.5" xml:space="preserve">
<g>
	<g>
		
			<rect x="1.2" y="4.5" fill="#4A4A4A" stroke="#4A4A4A" stroke-width="8.000000e-02" stroke-miterlimit="10" width="1" height="0.1"/>
	</g>
	<g>
		<polygon fill="#4A4A4A" stroke="#4A4A4A" stroke-width="8.000000e-02" stroke-miterlimit="10" points="4.6,6.9 1.1,6.9 1.1,4.6 
			0.7,4.6 0.7,4.4 1.5,3.9 1.6,4 0.9,4.5 1.2,4.5 1.2,6.7 4.5,6.7 4.5,4.5 4.8,4.5 4.1,4 4.2,3.9 5,4.4 5,4.6 4.6,4.6 		"/>
	</g>
	<g>
		<path fill="#4A4A4A" stroke="#4A4A4A" stroke-width="8.000000e-02" stroke-miterlimit="10" d="M2.9,3.5c-0.2,0-0.3-0.1-0.3-0.3
			C2.6,3.1,2.7,3,2.9,3s0.3,0.1,0.3,0.3C3.1,3.4,3,3.5,2.9,3.5z M2.9,3.1c-0.1,0-0.1,0.1-0.1,0.1s0.1,0.1,0.1,0.1
			C2.9,3.4,3,3.3,3,3.3S2.9,3.1,2.9,3.1z"/>
	</g>
	<g>
		<path fill="#4A4A4A" stroke="#4A4A4A" stroke-width="8.000000e-02" stroke-miterlimit="10" d="M3.8,3.9L3,3.4L3,3.3l0.8,0.4
			C3.9,3.7,4,3.5,4,3.3C4,3,3.9,2.8,3.8,2.8L3,3.2L3,3.1l0.9-0.4l0,0c0,0,0.2,0.2,0.2,0.6S3.9,3.8,3.8,3.9L3.8,3.9z"/>
	</g>
	<g>
		
			<rect x="3.4" y="3.2" fill="#4A4A4A" stroke="#4A4A4A" stroke-width="8.000000e-02" stroke-miterlimit="10" width="0.1" height="0.1"/>
	</g>
	<g>
		
			<rect x="3.1" y="3.2" fill="#4A4A4A" stroke="#4A4A4A" stroke-width="8.000000e-02" stroke-miterlimit="10" width="0.2" height="0.1"/>
	</g>
	<g>
		<polygon fill="#4A4A4A" stroke="#4A4A4A" stroke-width="8.000000e-02" stroke-miterlimit="10" points="3.4,4.8 2.8,3.5 2.9,3.4 
			3.4,4.6 4.1,3.9 3.9,3.7 3.9,3.6 4.3,3.9 		"/>
	</g>
	<g>
		<path fill="#4A4A4A" stroke="#4A4A4A" stroke-width="8.000000e-02" stroke-miterlimit="10" d="M1.9,3.9L1.9,3.9
			c0,0-0.3-0.2-0.3-0.6s0.2-0.6,0.2-0.6l0,0l0.9,0.4L2.7,3.2L1.9,2.8C1.9,2.8,1.8,3,1.8,3.3c0,0.3,0.1,0.4,0.2,0.5l0.8-0.4l0.1,0.1
			L1.9,3.9z"/>
	</g>
	<g>
		
			<rect x="2.2" y="3.2" fill="#4A4A4A" stroke="#4A4A4A" stroke-width="8.000000e-02" stroke-miterlimit="10" width="0.5" height="0.1"/>
	</g>
	<g>
		<polygon fill="#4A4A4A" stroke="#4A4A4A" stroke-width="8.000000e-02" stroke-miterlimit="10" points="2.3,4.8 1.4,3.9 1.8,3.6 
			1.9,3.7 1.6,3.9 2.3,4.6 2.8,3.4 2.9,3.5 		"/>
	</g>
	<g>
		
			<rect x="3.2" y="3.4" transform="matrix(0.8137 -0.5812 0.5812 0.8137 -1.532 2.6085)" fill="#4A4A4A" stroke="#4A4A4A" stroke-width="8.000000e-02" stroke-miterlimit="10" width="0.1" height="0.6"/>
	</g>
	<g>
		
			<rect x="2.1" y="3.6" transform="matrix(0.5812 -0.8137 0.8137 0.5812 -1.9949 3.5126)" fill="#4A4A4A" stroke="#4A4A4A" stroke-width="8.000000e-02" stroke-miterlimit="10" width="0.6" height="0.1"/>
	</g>
	<g>
		
			<rect x="3.5" y="4.5" fill="#4A4A4A" stroke="#4A4A4A" stroke-width="8.000000e-02" stroke-miterlimit="10" width="1" height="0.1"/>
	</g>
	<g>
		
			<rect x="2.4" y="4.4" fill="#4A4A4A" stroke="#4A4A4A" stroke-width="8.000000e-02" stroke-miterlimit="10" width="0.1" height="2.4"/>
	</g>
	<g>
		
			<rect x="3.2" y="4.4" fill="#4A4A4A" stroke="#4A4A4A" stroke-width="8.000000e-02" stroke-miterlimit="10" width="0.1" height="2.4"/>
	</g>
</g>
<g display="none">
	<path display="inline" fill="#4A4A4A" d="M9.7,7.2c0.1,0,0.2,0,0.3,0s0.2-0.1,0.2-0.1c0.1-0.1,0.1-0.1,0.2-0.2
		c0-0.1,0.1-0.1,0.1-0.2c0-0.1,0-0.2-0.1-0.3c-0.1-0.1-0.1-0.1-0.2-0.2C10,6,9.9,6,9.8,5.9c-0.1,0-0.2-0.1-0.4-0.1
		C9.2,5.7,9.1,5.6,8.9,5.5S8.6,5.3,8.4,5.2S8.2,5,8.1,4.8C8.1,4.7,8,4.5,8,4.3c0-0.1,0-0.2,0-0.3c0-0.1,0.1-0.2,0.1-0.3
		c0-0.1,0.1-0.2,0.2-0.2c0.1-0.1,0.2-0.1,0.3-0.2C8.7,3.2,8.9,3.2,9,3.1c0.1,0,0.3-0.1,0.5-0.1c0.1,0,0.2,0,0.3,0
		c0.1,0,0.2,0,0.3,0.1c0.1,0,0.2,0.1,0.3,0.1s0.2,0.1,0.2,0.1h0l0-0.3H11v1.4h-0.4c-0.1-0.4-0.2-0.6-0.4-0.8C10,3.6,9.8,3.5,9.5,3.5
		c-0.1,0-0.2,0-0.3,0S9.1,3.6,9,3.7S8.9,3.8,8.9,3.9S8.8,4,8.8,4.1c0,0.1,0,0.2,0.1,0.3c0,0.1,0.1,0.1,0.2,0.2s0.2,0.1,0.3,0.2
		s0.3,0.1,0.4,0.2C10,5,10.1,5,10.2,5.1c0.1,0.1,0.2,0.1,0.3,0.2c0.1,0.1,0.2,0.1,0.3,0.2S11,5.6,11,5.7c0.1,0.1,0.1,0.2,0.2,0.3
		c0,0.1,0.1,0.2,0.1,0.4c0,0.2,0,0.4-0.1,0.5C11.1,7,11,7.2,10.8,7.3c-0.1,0.1-0.3,0.2-0.5,0.3c-0.2,0.1-0.4,0.1-0.7,0.1
		c-0.1,0-0.2,0-0.3,0c-0.1,0-0.2,0-0.3-0.1C9,7.5,9,7.5,8.9,7.4c-0.1,0-0.2-0.1-0.3-0.1h0l0,0.3H8.1V6.1h0.4c0,0.2,0.1,0.3,0.1,0.5
		c0.1,0.1,0.2,0.2,0.3,0.3C9,7,9.2,7.1,9.3,7.1S9.5,7.2,9.7,7.2z"/>
	<path display="inline" fill="#4A4A4A" d="M12,5.5c0-0.1,0-0.2,0-0.2c0-0.1,0-0.2,0-0.3l-0.4,0V4.6c0.1,0,0.3,0,0.4,0
		c0.1,0,0.2,0,0.3,0c0.1,0,0.1,0,0.2-0.1s0.1,0,0.1-0.1h0.3l0,0.3h0c0.1-0.1,0.3-0.2,0.4-0.3s0.3-0.1,0.4-0.1c0.2,0,0.4,0,0.5,0.1
		c0.2,0.1,0.3,0.2,0.4,0.3c0.1,0.1,0.2,0.3,0.3,0.5c0.1,0.2,0.1,0.4,0.1,0.6c0,0.2,0,0.5-0.1,0.7S14.7,7,14.5,7.1
		c-0.1,0.2-0.3,0.3-0.5,0.4s-0.4,0.1-0.6,0.1c-0.1,0-0.2,0-0.3,0c-0.1,0-0.2,0-0.2-0.1v0.6c0,0,0,0.1,0,0.1s0,0.1,0,0.1
		c0,0,0,0.1,0,0.2c0,0.1,0,0.1,0,0.1l0.4,0v0.5h-1.6V8.7c0.1,0,0.2,0,0.2,0s0.1-0.1,0.1-0.1c0,0,0-0.1,0-0.2c0-0.1,0-0.1,0-0.2V5.5z
		 M13.4,4.9c-0.1,0-0.2,0-0.3,0.1c-0.1,0-0.2,0.1-0.2,0.2V7c0,0,0,0,0.1,0s0.1,0,0.1,0c0,0,0.1,0,0.1,0c0,0,0.1,0,0.1,0
		c0.1,0,0.3,0,0.4-0.1s0.2-0.2,0.2-0.3C13.9,6.7,14,6.6,14,6.4c0-0.1,0-0.3,0-0.4c0-0.1,0-0.3,0-0.4c0-0.1-0.1-0.2-0.1-0.4
		C13.8,5.1,13.7,5,13.7,5C13.6,4.9,13.5,4.9,13.4,4.9z"/>
	<path display="inline" fill="#4A4A4A" d="M15.5,5.1c0-0.1,0-0.2,0.1-0.3s0.2-0.2,0.3-0.3c0.1-0.1,0.3-0.1,0.4-0.2
		c0.2,0,0.3-0.1,0.5-0.1c0.2,0,0.3,0,0.5,0.1c0.1,0,0.3,0.1,0.4,0.2c0.1,0.1,0.2,0.2,0.2,0.4c0.1,0.1,0.1,0.3,0.1,0.5
		c0,0.1,0,0.2,0,0.3s0,0.2,0,0.2c0,0.1,0,0.2,0,0.2s0,0.2,0,0.3c0,0,0,0.1,0,0.1s0,0.1,0,0.1s0,0.1,0,0.1s0,0.1,0,0.1l0.4,0v0.5
		h-1.2c0-0.1,0-0.1,0-0.1c0,0,0-0.1,0-0.1h0c-0.1,0.1-0.3,0.2-0.4,0.3c-0.2,0.1-0.3,0.1-0.5,0.1c-0.1,0-0.3,0-0.4-0.1
		c-0.1,0-0.2-0.1-0.3-0.2c-0.1-0.1-0.1-0.2-0.2-0.3c0-0.1-0.1-0.2-0.1-0.3c0-0.1,0-0.2,0.1-0.4c0-0.1,0.1-0.2,0.2-0.3
		c0.1-0.1,0.2-0.2,0.3-0.2c0.1-0.1,0.2-0.1,0.4-0.2c0.1,0,0.3-0.1,0.4-0.1c0.1,0,0.3,0,0.4,0V5.3c0-0.1,0-0.2,0-0.2
		C17,5,17,5,17,4.9c0-0.1-0.1-0.1-0.1-0.1s-0.1,0-0.2,0c-0.1,0-0.2,0-0.2,0.1s-0.1,0.1-0.2,0.1c0,0,0.1,0.1,0.1,0.1c0,0,0,0.1,0,0.1
		c0,0,0,0.1,0,0.1c0,0,0,0.1-0.1,0.1c0,0-0.1,0.1-0.1,0.1c-0.1,0-0.1,0-0.2,0c-0.1,0-0.1,0-0.2,0c0,0-0.1-0.1-0.1-0.1
		c0,0-0.1-0.1-0.1-0.1C15.5,5.3,15.5,5.2,15.5,5.1z M17,6.1c-0.1,0-0.2,0-0.3,0.1c-0.1,0-0.2,0.1-0.3,0.1c-0.1,0-0.1,0.1-0.2,0.2
		c0,0.1-0.1,0.1-0.1,0.2c0,0.1,0,0.1,0,0.1c0,0,0,0.1,0.1,0.1s0.1,0,0.1,0.1s0.1,0,0.1,0c0.1,0,0.2,0,0.3-0.1S17,6.9,17,6.8L17,6.1z
		"/>
	<path display="inline" fill="#4A4A4A" d="M20.8,4.3c0.1,0,0.1,0,0.2,0c0.1,0,0.1,0.1,0.2,0.1c0,0,0.1,0.1,0.1,0.2s0,0.1,0,0.2
		c0,0,0,0.1,0,0.1c0,0.1,0,0.1-0.1,0.1s-0.1,0.1-0.1,0.1c-0.1,0-0.1,0-0.2,0c0,0-0.1,0-0.1,0c0,0-0.1,0-0.1-0.1c0,0-0.1-0.1-0.1-0.1
		s0-0.1,0-0.2c-0.1,0-0.1,0-0.2,0.1c-0.1,0-0.1,0.1-0.2,0.2S20,5.3,20,5.3c0,0.1-0.1,0.1-0.1,0.2v1c0,0,0,0.1,0,0.1s0,0.1,0,0.1
		s0,0.1,0,0.1s0,0.1,0,0.1l0.4,0v0.5h-1.6V7.1c0.1,0,0.2,0,0.2,0c0,0,0.1-0.1,0.1-0.1s0-0.1,0-0.2s0-0.1,0-0.2v-1c0-0.1,0-0.2,0-0.2
		c0-0.1,0-0.2,0-0.3l-0.4,0V4.6c0.1,0,0.3,0,0.4,0s0.2,0,0.3,0c0.1,0,0.1,0,0.2-0.1c0,0,0.1,0,0.1-0.1h0.3l0,0.5h0
		c0-0.1,0.1-0.1,0.1-0.2c0.1-0.1,0.1-0.1,0.2-0.2c0.1-0.1,0.2-0.1,0.2-0.1C20.6,4.3,20.7,4.3,20.8,4.3z"/>
	<path display="inline" fill="#4A4A4A" d="M24.4,5.9l-2,0c0,0.2,0,0.3,0,0.5s0.1,0.3,0.1,0.4c0.1,0.1,0.2,0.2,0.3,0.2
		C23,7,23.1,7.1,23.3,7.1c0.1,0,0.1,0,0.2,0c0.1,0,0.2,0,0.2-0.1c0.1,0,0.2-0.1,0.2-0.1c0.1-0.1,0.2-0.1,0.2-0.2l0.3,0.3
		c-0.1,0.2-0.2,0.3-0.4,0.4c-0.1,0.1-0.3,0.2-0.4,0.2c-0.1,0.1-0.2,0.1-0.4,0.1c-0.1,0-0.2,0-0.3,0c-0.2,0-0.4,0-0.6-0.1
		s-0.3-0.2-0.5-0.3c-0.1-0.1-0.2-0.3-0.3-0.5c-0.1-0.2-0.1-0.4-0.1-0.7c0-0.2,0-0.4,0.1-0.6c0.1-0.2,0.2-0.4,0.3-0.5
		c0.1-0.2,0.3-0.3,0.5-0.4s0.4-0.1,0.6-0.1c0.1,0,0.2,0,0.3,0c0.1,0,0.2,0.1,0.3,0.1c0.1,0,0.2,0.1,0.3,0.2c0.1,0.1,0.2,0.2,0.2,0.3
		c0.1,0.1,0.1,0.2,0.2,0.4C24.4,5.5,24.4,5.7,24.4,5.9z M23.1,4.8c-0.1,0-0.2,0-0.2,0.1c-0.1,0-0.1,0.1-0.2,0.1
		c-0.1,0.1-0.1,0.1-0.1,0.2s-0.1,0.2-0.1,0.3h1.1c0-0.1,0-0.2,0-0.3c0-0.1-0.1-0.2-0.1-0.2c0-0.1-0.1-0.1-0.2-0.1
		C23.2,4.8,23.2,4.8,23.1,4.8z"/>
	<path display="inline" fill="#4A4A4A" d="M25,4c0-0.1,0-0.2,0-0.3s0-0.2,0-0.3l-0.4,0V3c0.1,0,0.3,0,0.4,0c0.1,0,0.2,0,0.3,0
		c0.1,0,0.1,0,0.2-0.1c0,0,0.1,0,0.1-0.1h0.3v1.8c0.1-0.1,0.3-0.2,0.4-0.3c0.1,0,0.3-0.1,0.4-0.1c0.2,0,0.4,0,0.5,0.1
		c0.2,0.1,0.3,0.2,0.4,0.3c0.1,0.1,0.2,0.3,0.3,0.5C28,5.4,28,5.7,28,5.9c0,0.2,0,0.5-0.1,0.7S27.7,7,27.6,7.1
		c-0.1,0.2-0.3,0.3-0.5,0.4s-0.4,0.1-0.6,0.1c-0.1,0-0.1,0-0.2,0c-0.1,0-0.1,0-0.2-0.1c-0.1,0-0.2-0.1-0.2-0.1
		c-0.1,0-0.2-0.1-0.2-0.2h0l-0.2,0.3H25V4z M26.4,4.9c-0.1,0-0.2,0-0.3,0.1S26,5.1,25.9,5.1v1.4c0,0.1,0,0.2,0,0.3
		C26,6.9,26,7,26.1,7c0,0,0.1,0.1,0.2,0.1c0.1,0,0.1,0,0.2,0c0.1,0,0.2,0,0.3-0.1c0.1-0.1,0.2-0.2,0.2-0.3C27,6.7,27,6.6,27,6.4
		s0-0.3,0-0.4c0-0.1,0-0.3,0-0.4c0-0.1-0.1-0.3-0.1-0.4C26.9,5.1,26.8,5,26.7,5C26.6,4.9,26.5,4.9,26.4,4.9z"/>
	<path display="inline" fill="#4A4A4A" d="M28.5,5.1c0-0.1,0-0.2,0.1-0.3s0.2-0.2,0.3-0.3c0.1-0.1,0.3-0.1,0.4-0.2
		c0.2,0,0.3-0.1,0.5-0.1c0.2,0,0.3,0,0.5,0.1c0.1,0,0.3,0.1,0.4,0.2c0.1,0.1,0.2,0.2,0.2,0.4C30.9,5.1,31,5.3,31,5.5
		c0,0.1,0,0.2,0,0.3s0,0.2,0,0.2c0,0.1,0,0.2,0,0.2s0,0.2,0,0.3c0,0,0,0.1,0,0.1s0,0.1,0,0.1s0,0.1,0,0.1s0,0.1,0,0.1l0.4,0v0.5
		h-1.2c0-0.1,0-0.1,0-0.1c0,0,0-0.1,0-0.1h0c-0.1,0.1-0.3,0.2-0.4,0.3c-0.2,0.1-0.3,0.1-0.5,0.1c-0.1,0-0.3,0-0.4-0.1
		c-0.1,0-0.2-0.1-0.3-0.2c-0.1-0.1-0.1-0.2-0.2-0.3c0-0.1-0.1-0.2-0.1-0.3c0-0.1,0-0.2,0.1-0.4s0.1-0.2,0.2-0.3
		c0.1-0.1,0.2-0.2,0.3-0.2c0.1-0.1,0.2-0.1,0.4-0.2c0.1,0,0.3-0.1,0.4-0.1c0.1,0,0.3,0,0.4,0V5.3c0-0.1,0-0.2,0-0.2
		C30.1,5,30,5,30,4.9c0-0.1-0.1-0.1-0.1-0.1s-0.1,0-0.2,0c-0.1,0-0.2,0-0.2,0.1s-0.1,0.1-0.2,0.1c0,0,0.1,0.1,0.1,0.1
		c0,0,0,0.1,0,0.1c0,0,0,0.1,0,0.1c0,0,0,0.1-0.1,0.1c0,0-0.1,0.1-0.1,0.1c-0.1,0-0.1,0-0.2,0c-0.1,0-0.1,0-0.2,0
		c0,0-0.1-0.1-0.1-0.1c0,0-0.1-0.1-0.1-0.1C28.5,5.3,28.5,5.2,28.5,5.1z M30.1,6.1c-0.1,0-0.2,0-0.3,0.1c-0.1,0-0.2,0.1-0.3,0.1
		c-0.1,0-0.1,0.1-0.2,0.2c0,0.1-0.1,0.1-0.1,0.2c0,0.1,0,0.1,0,0.1c0,0,0,0.1,0.1,0.1s0.1,0,0.1,0.1s0.1,0,0.1,0
		c0.1,0,0.2,0,0.3-0.1s0.2-0.1,0.2-0.2L30.1,6.1z"/>
	<path display="inline" fill="#4A4A4A" d="M33.6,5.2c0,0,0-0.1,0-0.1c0-0.1,0-0.1,0.1-0.1c0,0-0.1-0.1-0.1-0.1c0,0-0.1,0-0.1-0.1
		c0,0-0.1,0-0.1,0c0,0-0.1,0-0.1,0c-0.1,0-0.2,0-0.3,0.1S32.8,5,32.7,5s-0.1,0.2-0.1,0.3c0,0.1-0.1,0.3-0.1,0.5c0,0.2,0,0.3,0,0.5
		c0,0.1,0.1,0.3,0.1,0.4C32.8,6.8,32.9,6.9,33,7c0.1,0.1,0.2,0.1,0.4,0.1c0.1,0,0.2,0,0.2,0c0.1,0,0.2-0.1,0.2-0.1
		c0.1,0,0.1-0.1,0.2-0.1c0.1-0.1,0.1-0.1,0.2-0.2l0.3,0.3c-0.1,0.2-0.2,0.3-0.3,0.4c-0.1,0.1-0.2,0.2-0.4,0.2
		c-0.1,0.1-0.2,0.1-0.4,0.1c-0.1,0-0.2,0-0.3,0c-0.2,0-0.4,0-0.6-0.1c-0.2-0.1-0.3-0.2-0.5-0.3c-0.1-0.1-0.2-0.3-0.3-0.5
		c-0.1-0.2-0.1-0.4-0.1-0.7c0-0.2,0-0.5,0.1-0.7c0.1-0.2,0.2-0.4,0.3-0.5c0.1-0.2,0.3-0.3,0.5-0.4s0.4-0.1,0.7-0.1
		c0.2,0,0.4,0,0.5,0.1s0.3,0.1,0.4,0.2c0.1,0.1,0.2,0.2,0.2,0.3c0.1,0.1,0.1,0.2,0.1,0.3c0,0.1,0,0.1,0,0.2c0,0.1,0,0.1-0.1,0.1
		c0,0-0.1,0.1-0.1,0.1c-0.1,0-0.1,0-0.2,0c-0.1,0-0.1,0-0.2,0c-0.1,0-0.1-0.1-0.1-0.1c0,0-0.1-0.1-0.1-0.1S33.6,5.3,33.6,5.2z"/>
	<path display="inline" fill="#4A4A4A" d="M36,6.5c0,0,0,0.1,0,0.1s0,0.1,0,0.1c0,0,0,0.1,0,0.1C36,7,36,7,36,7.1l0.4,0v0.5h-1.6
		V7.1c0.1,0,0.2,0,0.2,0c0,0,0.1-0.1,0.1-0.1s0-0.1,0-0.2s0-0.1,0-0.2V4c0-0.1,0-0.2,0-0.3s0-0.2,0-0.3l-0.4,0V3c0.1,0,0.3,0,0.4,0
		c0.1,0,0.2,0,0.3,0c0.1,0,0.1,0,0.2-0.1c0,0,0.1,0,0.1-0.1H36v2.8h0.3l0.4-0.5C36.8,5.1,36.9,5,36.9,5C37,5,37,4.9,37,4.9v0l-0.3,0
		V4.4h1.4v0.4c-0.1,0-0.2,0-0.3,0.1S37.6,5,37.6,5c-0.1,0-0.1,0.1-0.2,0.1c-0.1,0.1-0.1,0.1-0.2,0.2l-0.4,0.4v0c0,0,0.1,0,0.1,0.1
		c0,0,0.1,0,0.1,0.1S37.1,6,37.1,6c0,0,0.1,0.1,0.1,0.1l0.4,0.5c0,0,0.1,0.1,0.1,0.1c0,0,0.1,0.1,0.1,0.1C37.9,7,38,7,38,7.1
		c0.1,0,0.1,0.1,0.2,0.1v0.4h-0.7c-0.1,0-0.1,0-0.2,0c-0.1,0-0.1-0.1-0.2-0.1c-0.1,0-0.1-0.1-0.2-0.2c-0.1-0.1-0.1-0.1-0.2-0.2
		c-0.1-0.1-0.1-0.2-0.2-0.2c-0.1-0.1-0.1-0.2-0.2-0.2s-0.1-0.2-0.2-0.2c0-0.1-0.1-0.1-0.1-0.2l-0.1,0V6.5z"/>
</g>
<text transform="matrix(1 0 0 1 5.9747 7.2188)" fill="#4A4A4A" font-family="'Lora-Bold'" font-size="6.2652px">Spareback</text>
</svg>
