<?xml version="1.0" encoding="utf-8"?>
<!-- Generator: Adobe Illustrator 22.1.0, SVG Export Plug-In . SVG Version: 6.00 Build 0)  -->
<!DOCTYPE svg PUBLIC "-//W3C//DTD SVG 1.1//EN" "http://www.w3.org/Graphics/SVG/1.1/DTD/svg11.dtd">
<svg version="1.1" id="Layer_1" xmlns="http://www.w3.org/2000/svg" xmlns:xlink="http://www.w3.org/1999/xlink" x="0px" y="0px"
	 viewBox="0 0 128 130" style="enable-background:new 0 0 128 130;" xml:space="preserve">
<style type="text/css">
	.st0{fill:#CC4444;}
	.st1{enable-background:new    ;}
</style>
<g>
	<path class="st0" d="M13.8,8.7H4C3.6,8.7,3.3,9,3.3,9.4v68.5c0,0.4,0.3,0.8,0.8,0.8h9.8c0.4,0,0.8-0.3,0.8-0.8V9.4
		C14.6,9,14.2,8.7,13.8,8.7z M4.8,77.2v-67h8.3v7.6H9.8c-0.4,0-0.8,0.3-0.8,0.8c0,0.4,0.3,0.8,0.8,0.8H13V28H8.7
		c-0.4,0-0.8,0.3-0.8,0.8c0,0.4,0.3,0.8,0.8,0.8h4.4v8.6H9.8C9.4,38.2,9,38.5,9,39c0,0.4,0.3,0.8,0.8,0.8H13v8.6H8.7
		c-0.4,0-0.8,0.3-0.8,0.8c0,0.4,0.3,0.8,0.8,0.8h4.4v8H9.8C9.4,58,9,58.3,9,58.8c0,0.4,0.3,0.8,0.8,0.8H13v8.6H8.7
		c-0.4,0-0.8,0.3-0.8,0.8c0,0.4,0.3,0.8,0.8,0.8h4.4v7.6H4.8V77.2z"/>
	<path class="st0" d="M94.3,113.6l-1.2,1.2c-0.3,0.3-0.3,0.8,0,1.1c0.1,0.1,0.3,0.2,0.5,0.2s0.4-0.1,0.5-0.2l1.2-1.2
		c0.3-0.3,0.3-0.8,0-1.1C95.1,113.3,94.6,113.3,94.3,113.6z"/>
	<path class="st0" d="M90.4,117.5l-1.2,1.2c-0.3,0.3-0.3,0.8,0,1.1c0.1,0.1,0.3,0.2,0.5,0.2s0.4-0.1,0.5-0.2l1.2-1.2
		c0.3-0.3,0.3-0.8,0-1.1C91.2,117.2,90.7,117.2,90.4,117.5z"/>
	<path class="st0" d="M94.2,117.5c-0.3-0.3-0.8-0.3-1.1,0c-0.3,0.3-0.3,0.8,0,1.1l1.2,1.2c0.1,0.1,0.3,0.2,0.5,0.2s0.4-0.1,0.5-0.2
		c0.3-0.3,0.3-0.8,0-1.1L94.2,117.5z"/>
	<path class="st0" d="M90.3,113.6c-0.3-0.3-0.8-0.3-1.1,0c-0.3,0.3-0.3,0.8,0,1.1l1.2,1.2c0.1,0.1,0.3,0.2,0.5,0.2s0.4-0.1,0.5-0.2
		c0.3-0.3,0.3-0.8,0-1.1L90.3,113.6z"/>
	<path class="st0" d="M10.5,90.2c0.2,0,0.4-0.1,0.5-0.2l1.2-1.2c0.3-0.3,0.3-0.8,0-1.1c-0.3-0.3-0.8-0.3-1.1,0l-1.2,1.2
		c-0.3,0.3-0.3,0.8,0,1.1C10.1,90.1,10.3,90.2,10.5,90.2z"/>
	<path class="st0" d="M8.3,92.6c0.3-0.3,0.3-0.8,0-1.1c-0.3-0.3-0.8-0.3-1.1,0L6,92.8c-0.3,0.3-0.3,0.8,0,1.1
		c0.1,0.1,0.3,0.2,0.5,0.2S6.9,94,7,93.9L8.3,92.6z"/>
	<path class="st0" d="M9.9,92.6l1.2,1.2c0.1,0.1,0.3,0.2,0.5,0.2s0.4-0.1,0.5-0.2c0.3-0.3,0.3-0.8,0-1.1L11,91.6
		c-0.3-0.3-0.8-0.3-1.1,0C9.6,91.9,9.6,92.3,9.9,92.6z"/>
	<path class="st0" d="M7.2,89.9c0.1,0.1,0.3,0.2,0.5,0.2s0.4-0.1,0.5-0.2c0.3-0.3,0.3-0.8,0-1.1L7,87.6c-0.3-0.3-0.8-0.3-1.1,0
		c-0.3,0.3-0.3,0.8,0,1.1L7.2,89.9z"/>
	<path class="st0" d="M26.2,3.2c0.2,0,0.4-0.1,0.5-0.2l1.2-1.2c0.3-0.3,0.3-0.8,0-1.1s-0.8-0.3-1.1,0l-1.2,1.2
		c-0.3,0.3-0.3,0.8,0,1.1C25.8,3.1,26,3.2,26.2,3.2z"/>
	<path class="st0" d="M22.3,7.1c0.2,0,0.4-0.1,0.5-0.2L24,5.7c0.3-0.3,0.3-0.8,0-1.1c-0.3-0.3-0.8-0.3-1.1,0l-1.2,1.2
		c-0.3,0.3-0.3,0.8,0,1.1C21.9,7,22.1,7.1,22.3,7.1z"/>
	<path class="st0" d="M26.8,6.9C27,7,27.2,7.1,27.4,7.1c0.2,0,0.4-0.1,0.5-0.2c0.3-0.3,0.3-0.8,0-1.1l-1.2-1.2
		c-0.3-0.3-0.8-0.3-1.1,0c-0.3,0.3-0.3,0.8,0,1.1L26.8,6.9z"/>
	<path class="st0" d="M22.9,3c0.1,0.1,0.3,0.2,0.5,0.2s0.4-0.1,0.5-0.2c0.3-0.3,0.3-0.8,0-1.1l-1.2-1.2c-0.3-0.3-0.8-0.3-1.1,0
		c-0.3,0.3-0.3,0.8,0,1.1L22.9,3z"/>
	<path class="st0" d="M115,4.3c0.2,0,0.4-0.1,0.5-0.2l1.2-1.2c0.3-0.3,0.3-0.8,0-1.1s-0.8-0.3-1.1,0L114.4,3c-0.3,0.3-0.3,0.8,0,1.1
		C114.6,4.2,114.8,4.3,115,4.3z"/>
	<path class="st0" d="M111.1,8.2c0.2,0,0.4-0.1,0.5-0.2l1.2-1.2c0.3-0.3,0.3-0.8,0-1.1c-0.3-0.3-0.8-0.3-1.1,0l-1.2,1.2
		c-0.3,0.3-0.3,0.8,0,1.1C110.7,8.2,110.9,8.2,111.1,8.2z"/>
	<path class="st0" d="M115.6,8c0.1,0.1,0.3,0.2,0.5,0.2s0.4-0.1,0.5-0.2c0.3-0.3,0.3-0.8,0-1.1l-1.2-1.2c-0.3-0.3-0.8-0.3-1.1,0
		c-0.3,0.3-0.3,0.8,0,1.1L115.6,8z"/>
	<path class="st0" d="M111.7,4.1c0.1,0.1,0.3,0.2,0.5,0.2s0.4-0.1,0.5-0.2c0.3-0.3,0.3-0.8,0-1.1l-1.2-1.2c-0.3-0.3-0.8-0.3-1.1,0
		c-0.3,0.3-0.3,0.8,0,1.1L111.7,4.1z"/>
	<path class="st0" d="M120.7,58.2c0.2,0,0.4-0.1,0.5-0.2l1.2-1.2c0.3-0.3,0.3-0.8,0-1.1s-0.8-0.3-1.1,0l-1.2,1.2
		c-0.3,0.3-0.3,0.8,0,1.1C120.3,58.1,120.5,58.2,120.7,58.2z"/>
	<path class="st0" d="M116.2,61.8c0.1,0.1,0.3,0.2,0.5,0.2s0.4-0.1,0.5-0.2l1.2-1.2c0.3-0.3,0.3-0.8,0-1.1s-0.8-0.3-1.1,0l-1.2,1.2
		C115.9,61.1,115.9,61.6,116.2,61.8z"/>
	<path class="st0" d="M121.3,61.8c0.1,0.1,0.3,0.2,0.5,0.2s0.4-0.1,0.5-0.2c0.3-0.3,0.3-0.8,0-1.1l-1.2-1.2c-0.3-0.3-0.8-0.3-1.1,0
		c-0.3,0.3-0.3,0.8,0,1.1L121.3,61.8z"/>
	<path class="st0" d="M117.4,57.9c0.1,0.1,0.3,0.2,0.5,0.2s0.4-0.1,0.5-0.2c0.3-0.3,0.3-0.8,0-1.1l-1.2-1.2c-0.3-0.3-0.8-0.3-1.1,0
		c-0.3,0.3-0.3,0.8,0,1.1L117.4,57.9z"/>
	<path class="st0" d="M111.3,84c0,2.1,1.7,3.7,3.7,3.7c2.1,0,3.7-1.7,3.7-3.7c0-2.1-1.7-3.7-3.7-3.7C112.9,80.3,111.3,82,111.3,84z
		 M117.2,84c0,1.2-1,2.2-2.2,2.2s-2.2-1-2.2-2.2s1-2.2,2.2-2.2S117.2,82.8,117.2,84z"/>
	<path class="st0" d="M9.7,111c-1.7,0-3.2,1.4-3.2,3.2c0,1.7,1.4,3.2,3.2,3.2c1.7,0,3.2-1.4,3.2-3.2S11.5,111,9.7,111z M9.7,115.8
		c-0.9,0-1.6-0.7-1.6-1.6s0.7-1.6,1.6-1.6c0.9,0,1.6,0.7,1.6,1.6C11.4,115.1,10.6,115.8,9.7,115.8z"/>
	<path class="st0" d="M124,112.7h-10.8c-0.4,0-0.8,0.3-0.8,0.8s0.3,0.8,0.8,0.8H124c0.4,0,0.8-0.3,0.8-0.8S124.4,112.7,124,112.7z"
		/>
	<path class="st0" d="M106.1,112.7c-0.4,0-0.8,0.3-0.8,0.8s0.3,0.8,0.8,0.8h3.5c0.4,0,0.8-0.3,0.8-0.8s-0.3-0.8-0.8-0.8H106.1z"/>
	<path class="st0" d="M113.6,116.5H106c-0.4,0-0.8,0.3-0.8,0.8c0,0.4,0.3,0.8,0.8,0.8h7.6c0.4,0,0.8-0.3,0.8-0.8
		S114,116.5,113.6,116.5z"/>
	<path class="st0" d="M119.3,116.5h-2.4c-0.4,0-0.8,0.3-0.8,0.8c0,0.4,0.3,0.8,0.8,0.8h2.4c0.4,0,0.8-0.3,0.8-0.8
		C120.1,116.8,119.7,116.5,119.3,116.5z"/>
	<path class="st0" d="M43.2,84.9c0.1,0,0.2,0.1,0.3,0.1c0.3,0,0.6-0.2,0.7-0.5c0.3-0.6,0.4-1.3,0.4-2c0-0.1,0-0.3,0-0.4
		c-0.1-0.8-0.3-1.5-0.7-2.2c-0.2-0.4-0.7-0.5-1-0.3c-0.4,0.2-0.5,0.7-0.3,1c0.3,0.5,0.4,1,0.5,1.6c0,0.1,0,0.2,0,0.3
		c0,0.5-0.1,1-0.3,1.4C42.6,84.4,42.8,84.8,43.2,84.9z"/>
	<path class="st0" d="M35.1,87.2c0-0.4-0.3-0.8-0.8-0.8h-4.1c-0.4,0-0.8,0.3-0.8,0.8c0,0.4,0.3,0.8,0.8,0.8h4.1
		C34.8,87.9,35.1,87.6,35.1,87.2z"/>
	<path class="st0" d="M41.1,85.9c-0.6,0.3-1.3,0.5-1.9,0.5l0,0h-1.7c-0.4,0-0.8,0.3-0.8,0.8c0,0.4,0.3,0.8,0.8,0.8h1.7l0,0
		c1,0,1.9-0.3,2.7-0.7c0.4-0.2,0.5-0.7,0.3-1C41.9,85.8,41.4,85.7,41.1,85.9z"/>
	<path class="st0" d="M27.9,87.2c0-0.4-0.3-0.8-0.8-0.8h-2c-0.1,0-0.2,0-0.4,0.1c-0.5,0.1-1,0.2-1.5,0.4c-0.4,0.2-0.5,0.6-0.4,1
		c0.1,0.3,0.4,0.4,0.7,0.4c0.1,0,0.2,0,0.3-0.1c0.5-0.2,1.1-0.4,1.6-0.4c0.1,0,0.1,0,0.2,0H27C27.6,87.9,27.9,87.6,27.9,87.2z"/>
	<path class="st0" d="M21.8,89.1c-0.4-0.2-0.8,0-1,0.3c-0.4,0.8-0.6,1.6-0.6,2.4c0,0.7,0.1,1.5,0.4,2.2c0.1,0.3,0.4,0.5,0.7,0.5
		c0.1,0,0.2,0,0.2,0c0.4-0.1,0.6-0.6,0.5-1c-0.2-0.5-0.3-1.1-0.3-1.7s0.1-1.2,0.4-1.7C22.3,89.7,22.2,89.3,21.8,89.1z"/>
	<path class="st0" d="M23.5,95.8c-0.3-0.3-0.8-0.3-1.1,0.1c-0.3,0.3-0.3,0.8,0.1,1.1c1.2,1,2.7,1.7,4.2,1.8l0,0
		c0.4,0,0.7-0.3,0.8-0.7c0-0.4-0.3-0.8-0.7-0.8C25.5,97.1,24.4,96.6,23.5,95.8z"/>
	<path class="st0" d="M32.2,97.2c-0.1,0-0.2-0.1-0.3-0.1h-2c-0.4,0-0.8,0.3-0.8,0.8c0,0.4,0.3,0.8,0.8,0.8h1.7
		c0.1,0,0.2,0.1,0.3,0.1c0.5,0,1.1,0.1,1.5,0.4c0.1,0.1,0.3,0.1,0.4,0.1c0.3,0,0.5-0.1,0.6-0.4c0.2-0.4,0.1-0.8-0.2-1
		C33.6,97.5,32.9,97.3,32.2,97.2z"/>
	<path class="st0" d="M98.6,90.2c0-1.3-1.1-1.9-1.9-2.4s-1.1-0.7-1.1-1.1s0.4-0.7,1.1-1.1c0.8-0.5,1.9-1.1,1.9-2.4s-1.1-2-1.9-2.4
		c-0.8-0.5-1.1-0.7-1.1-1.1s-0.3-0.8-0.8-0.8c-0.4,0-0.8,0.3-0.8,0.8c0,1.3,1.1,2,1.9,2.4c0.8,0.5,1.1,0.7,1.1,1.1s-0.4,0.7-1.1,1.1
		c-0.8,0.5-1.9,1.1-1.9,2.4s1.1,2,1.9,2.4s1.1,0.7,1.1,1.1c-3.2,0.2-5.8,2.9-5.8,6.1v7.3c0,3.4,2.8,6.2,6.2,6.2h0.9
		c3.4,0,6.2-2.8,6.2-6.2v-7.3C104.5,93,101.8,90.3,98.6,90.2z M103,103.6c0,2.6-2.1,4.7-4.7,4.7h-0.9c-2.6,0-4.7-2.1-4.7-4.7v-7.3
		c0-2.5,1.9-4.5,4.4-4.6v3.5c0,0.4,0.3,0.8,0.8,0.8s0.8-0.3,0.8-0.8v-3.5c2.4,0.2,4.4,2.2,4.4,4.6v7.3H103z"/>
	<path class="st0" d="M80.1,104.3H35.8c0.2-0.1,0.4-0.4,0.4-0.7v-2c0-0.4-0.3-0.8-0.8-0.8s-0.8,0.3-0.8,0.8v2c0,0.3,0.2,0.5,0.4,0.7
		H20.8c-1.2,0-2.2,1-2.2,2.2v18.8c0,1.2,1,2.2,2.2,2.2h59.3c1.2,0,2.2-1,2.2-2.2v-18.8C82.3,105.3,81.3,104.3,80.1,104.3z
		 M80.8,125.3c0,0.4-0.3,0.7-0.7,0.7H20.8c-0.4,0-0.7-0.3-0.7-0.7v-18.8c0-0.4,0.3-0.7,0.7-0.7h59.3c0.4,0,0.7,0.3,0.7,0.7
		C80.8,106.5,80.8,125.3,80.8,125.3z"/>
	<path class="st0" d="M37.1,110.1h2c0.4,0,0.8-0.3,0.8-0.8c0-0.4-0.3-0.8-0.8-0.8h-2c-0.4,0-0.8,0.3-0.8,0.8
		C36.4,109.8,36.7,110.1,37.1,110.1z"/>
	<path class="st0" d="M31.1,110.1h2c0.4,0,0.8-0.3,0.8-0.8c0-0.4-0.3-0.8-0.8-0.8h-2c-0.4,0-0.8,0.3-0.8,0.8
		C30.3,109.8,30.7,110.1,31.1,110.1z"/>
	<path class="st0" d="M43.1,110.1h2c0.4,0,0.8-0.3,0.8-0.8c0-0.4-0.3-0.8-0.8-0.8h-2c-0.4,0-0.8,0.3-0.8,0.8
		C42.4,109.8,42.7,110.1,43.1,110.1z"/>
	<path class="st0" d="M75.3,108.6h-2c-0.4,0-0.8,0.3-0.8,0.8c0,0.4,0.3,0.8,0.8,0.8h2c0.4,0,0.8-0.3,0.8-0.8
		C76,109,75.7,108.6,75.3,108.6z"/>
	<path class="st0" d="M69.2,108.6h-2c-0.4,0-0.8,0.3-0.8,0.8c0,0.4,0.3,0.8,0.8,0.8h2c0.4,0,0.8-0.3,0.8-0.8
		C70,109,69.7,108.6,69.2,108.6z"/>
	<path class="st0" d="M51.2,108.6h-2c-0.4,0-0.8,0.3-0.8,0.8c0,0.4,0.3,0.8,0.8,0.8h2c0.4,0,0.8-0.3,0.8-0.8
		C51.9,109,51.6,108.6,51.2,108.6z"/>
	<path class="st0" d="M57.2,108.6h-2c-0.4,0-0.8,0.3-0.8,0.8c0,0.4,0.3,0.8,0.8,0.8h2c0.4,0,0.8-0.3,0.8-0.8
		C57.9,109,57.6,108.6,57.2,108.6z"/>
	<path class="st0" d="M27.1,108.6h-2c-0.4,0-0.8,0.3-0.8,0.8c0,0.4,0.3,0.8,0.8,0.8h2c0.4,0,0.8-0.3,0.8-0.8
		C27.8,109,27.5,108.6,27.1,108.6z"/>
	<path class="st0" d="M63.2,108.6h-2c-0.4,0-0.8,0.3-0.8,0.8c0,0.4,0.3,0.8,0.8,0.8h2c0.4,0,0.8-0.3,0.8-0.8
		C64,109,63.6,108.6,63.2,108.6z"/>
	<path class="st0" d="M27.1,113h-2c-0.4,0-0.8,0.3-0.8,0.8s0.3,0.8,0.8,0.8h2c0.4,0,0.8-0.3,0.8-0.8S27.5,113,27.1,113z"/>
	<path class="st0" d="M31.1,114.5h2c0.4,0,0.8-0.3,0.8-0.8s-0.3-0.8-0.8-0.8h-2c-0.4,0-0.8,0.3-0.8,0.8S30.7,114.5,31.1,114.5z"/>
	<path class="st0" d="M51.2,113h-2c-0.4,0-0.8,0.3-0.8,0.8s0.3,0.8,0.8,0.8h2c0.4,0,0.8-0.3,0.8-0.8S51.6,113,51.2,113z"/>
	<path class="st0" d="M63.2,113h-2c-0.4,0-0.8,0.3-0.8,0.8s0.3,0.8,0.8,0.8h2c0.4,0,0.8-0.3,0.8-0.8S63.6,113,63.2,113z"/>
	<path class="st0" d="M43.1,114.5h2c0.4,0,0.8-0.3,0.8-0.8s-0.3-0.8-0.8-0.8h-2c-0.4,0-0.8,0.3-0.8,0.8S42.7,114.5,43.1,114.5z"/>
	<path class="st0" d="M57.2,113h-2c-0.4,0-0.8,0.3-0.8,0.8s0.3,0.8,0.8,0.8h2c0.4,0,0.8-0.3,0.8-0.8S57.6,113,57.2,113z"/>
	<path class="st0" d="M75.3,113h-2c-0.4,0-0.8,0.3-0.8,0.8s0.3,0.8,0.8,0.8h2c0.4,0,0.8-0.3,0.8-0.8S75.7,113,75.3,113z"/>
	<path class="st0" d="M37.1,114.5h2c0.4,0,0.8-0.3,0.8-0.8s-0.3-0.8-0.8-0.8h-2c-0.4,0-0.8,0.3-0.8,0.8S36.7,114.5,37.1,114.5z"/>
	<path class="st0" d="M69.2,113h-2c-0.4,0-0.8,0.3-0.8,0.8s0.3,0.8,0.8,0.8h2c0.4,0,0.8-0.3,0.8-0.8S69.7,113,69.2,113z"/>
	<path class="st0" d="M69.2,117.3h-2c-0.4,0-0.8,0.3-0.8,0.8c0,0.4,0.3,0.8,0.8,0.8h2c0.4,0,0.8-0.3,0.8-0.8
		C70,117.6,69.7,117.3,69.2,117.3z"/>
	<path class="st0" d="M51.2,117.3h-2c-0.4,0-0.8,0.3-0.8,0.8c0,0.4,0.3,0.8,0.8,0.8h2c0.4,0,0.8-0.3,0.8-0.8
		C51.9,117.6,51.6,117.3,51.2,117.3z"/>
	<path class="st0" d="M57.2,117.3h-2c-0.4,0-0.8,0.3-0.8,0.8c0,0.4,0.3,0.8,0.8,0.8h2c0.4,0,0.8-0.3,0.8-0.8
		C57.9,117.6,57.6,117.3,57.2,117.3z"/>
	<path class="st0" d="M27.1,117.3h-2c-0.4,0-0.8,0.3-0.8,0.8c0,0.4,0.3,0.8,0.8,0.8h2c0.4,0,0.8-0.3,0.8-0.8
		C27.8,117.6,27.5,117.3,27.1,117.3z"/>
	<path class="st0" d="M33.9,118.1c0-0.4-0.3-0.8-0.8-0.8h-2c-0.4,0-0.8,0.3-0.8,0.8c0,0.4,0.3,0.8,0.8,0.8h2
		C33.5,118.8,33.9,118.5,33.9,118.1z"/>
	<path class="st0" d="M75.3,117.3h-2c-0.4,0-0.8,0.3-0.8,0.8c0,0.4,0.3,0.8,0.8,0.8h2c0.4,0,0.8-0.3,0.8-0.8
		C76,117.6,75.7,117.3,75.3,117.3z"/>
	<path class="st0" d="M63.2,117.3h-2c-0.4,0-0.8,0.3-0.8,0.8c0,0.4,0.3,0.8,0.8,0.8h2c0.4,0,0.8-0.3,0.8-0.8
		C64,117.6,63.6,117.3,63.2,117.3z"/>
	<path class="st0" d="M43.1,118.8h2c0.4,0,0.8-0.3,0.8-0.8c0-0.4-0.3-0.8-0.8-0.8h-2c-0.4,0-0.8,0.3-0.8,0.8
		C42.4,118.5,42.7,118.8,43.1,118.8z"/>
	<path class="st0" d="M37.1,118.8h2c0.4,0,0.8-0.3,0.8-0.8c0-0.4-0.3-0.8-0.8-0.8h-2c-0.4,0-0.8,0.3-0.8,0.8
		C36.4,118.5,36.7,118.8,37.1,118.8z"/>
	<path class="st0" d="M61.1,121.6h-2c-0.4,0-0.8,0.3-0.8,0.8c0,0.4,0.3,0.8,0.8,0.8h2c0.4,0,0.8-0.3,0.8-0.8
		C61.8,122,61.5,121.6,61.1,121.6z"/>
	<path class="st0" d="M78,121.6h-0.8c-0.4,0-0.8,0.3-0.8,0.8c0,0.4,0.3,0.8,0.8,0.8H78c0.4,0,0.8-0.3,0.8-0.8
		C78.7,122,78.4,121.6,78,121.6z"/>
	<path class="st0" d="M67.1,121.6h-2c-0.4,0-0.8,0.3-0.8,0.8c0,0.4,0.3,0.8,0.8,0.8h2c0.4,0,0.8-0.3,0.8-0.8
		C67.9,122,67.5,121.6,67.1,121.6z"/>
	<path class="st0" d="M73.1,121.6h-2c-0.4,0-0.8,0.3-0.8,0.8c0,0.4,0.3,0.8,0.8,0.8h2c0.4,0,0.8-0.3,0.8-0.8
		C73.9,122,73.6,121.6,73.1,121.6z"/>
	<path class="st0" d="M55.1,121.6h-2c-0.4,0-0.8,0.3-0.8,0.8c0,0.4,0.3,0.8,0.8,0.8h2c0.4,0,0.8-0.3,0.8-0.8
		C55.8,122,55.5,121.6,55.1,121.6z"/>
	<path class="st0" d="M49.4,121.6H32.3c-0.4,0-0.8,0.3-0.8,0.8c0,0.4,0.3,0.8,0.8,0.8h17.2c0.4,0,0.8-0.3,0.8-0.8
		C50.2,122,49.9,121.6,49.4,121.6z"/>
	<path class="st0" d="M27.1,121.6h-2c-0.4,0-0.8,0.3-0.8,0.8c0,0.4,0.3,0.8,0.8,0.8h2c0.4,0,0.8-0.3,0.8-0.8
		C27.8,122,27.5,121.6,27.1,121.6z"/>
	<path class="st0" d="M118,32.7c0.4,0,0.8-0.3,0.8-0.8V20.3c0-0.4-0.3-0.8-0.8-0.8c-0.4,0-0.8,0.3-0.8,0.8v11.6
		C117.2,32.3,117.6,32.7,118,32.7z"/>
	<path class="st0" d="M118,40.2c0.4,0,0.8-0.3,0.8-0.8v-3.8c0-0.4-0.3-0.8-0.8-0.8c-0.4,0-0.8,0.3-0.8,0.8v3.8
		C117.2,39.9,117.6,40.2,118,40.2z"/>
	<path class="st0" d="M23.8,78.6h15.1c0.6,0,1.1,0.1,1.7,0.3c0.1,0,0.2,0.1,0.3,0.1c0.3,0,0.5-0.2,0.7-0.4h19.2l-3.2,12.6h-4.3
		c-1.8,0-3.3,1.5-3.3,3.3V95c0,1.8,1.5,3.3,3.3,3.3h25.5c1.8,0,3.3-1.5,3.3-3.3v-0.4c0-1.8-1.5-3.3-3.3-3.3h-4.3l-3.2-12.6h37
		c2.8,0,5.1-2.3,5.1-5.1V19.4c0-2.8-2.3-5.1-5.1-5.1H23.8c-2.8,0-5.1,2.3-5.1,5.1v54.1C18.6,76.3,20.9,78.6,23.8,78.6z M66,46
		c0.9,0,1.6,0.7,1.6,1.6c0,0.9-0.7,1.6-1.6,1.6s-1.6-0.7-1.6-1.6S65.1,46,66,46z M65.2,44.6c-1.3,0.3-2.3,1.5-2.3,3
		c0,1.7,1.4,3.1,3.1,3.1s3.1-1.4,3.1-3.1c0-1.4-1-2.6-2.3-3v-8.7c1.8,4.5,4.8,10.4,9.1,15.3l-4.1,7.4H60.3l-4.1-7.4
		c4.3-4.9,7.2-10.8,9.1-15.3v8.7H65.2z M59.3,61.3V61c0-0.5,0.4-0.9,0.9-0.9h11.6c0.5,0,0.9,0.4,0.9,0.9v0.3c0,0.5-0.4,0.9-0.9,0.9
		H60.2C59.7,62.2,59.3,61.8,59.3,61.3z M60.2,63.7L60.2,63.7h11.6l0,0c0.2,1.1,0.4,2.2,0.6,3.2c0.6,3.6,1.1,7,1.4,10.2h-3.5h-8.6
		h-3.5c0.3-3.2,0.8-6.5,1.4-10.2C59.8,65.9,60,64.8,60.2,63.7z M80.6,94.5V95c0,1-0.8,1.8-1.8,1.8H53.2c-1,0-1.8-0.8-1.8-1.8v-0.4
		c0-1,0.8-1.8,1.8-1.8h4.9h15.8h4.9C79.8,92.7,80.6,93.6,80.6,94.5z M72.9,91.2H59.1l3.2-12.6h7.4L72.9,91.2z M20.1,19.4
		c0-2,1.6-3.6,3.6-3.6h84.4c2,0,3.6,1.6,3.6,3.6v54.1c0,2-1.6,3.6-3.6,3.6H75.3c-0.4-3.3-0.8-6.7-1.5-10.4c-0.2-1.2-0.4-2.3-0.6-3.5
		c0.6-0.4,1-1.1,1-1.9V61c0-0.8-0.4-1.5-1-1.9l4.2-7.6c0.1-0.2,0.1-0.5,0-0.7c0-0.1-0.1-0.1-0.1-0.2c-5.7-6.3-9-14.6-10.5-19l0,0
		c0,0,0,0,0-0.1s-0.1-0.1-0.1-0.2c0,0,0,0-0.1-0.1c0,0-0.1-0.1-0.2-0.1c0,0,0,0-0.1,0C66.2,31,66.1,31,66,31s-0.2,0-0.3,0.1
		c0,0,0,0-0.1,0s-0.1,0.1-0.2,0.1c0,0,0,0-0.1,0.1c0,0-0.1,0.1-0.1,0.2c0,0,0,0,0,0.1l0,0c-1.5,4.4-4.9,12.7-10.5,19
		c-0.1,0.1-0.1,0.1-0.2,0.2c-0.1,0.2-0.1,0.5,0,0.7l4.2,7.6c-0.6,0.4-1,1.1-1,1.9v0.3c0,0.8,0.4,1.5,1,1.9c-0.2,1.2-0.4,2.3-0.6,3.5
		c-0.6,3.7-1.1,7.2-1.5,10.4H23.8c-2,0-3.6-1.6-3.6-3.6L20.1,19.4L20.1,19.4z"/>
	<path class="st0" d="M38.4,5.6l8.9,3.5c0.1,0.1,0.3,0.2,0.5,0.2h50.6c2.3,0,4.1-1.9,4.1-4.1V4.6c0-2.3-1.9-4.1-4.1-4.1H47.8
		c-0.2,0-0.4,0.1-0.5,0.2l-8.9,3.5c-0.3,0.1-0.5,0.4-0.5,0.7C37.9,5.2,38.1,5.5,38.4,5.6z M48.5,5.7h46.3v2.2H48.5V5.7z M101,4.6
		v0.6c0,1.5-1.2,2.6-2.6,2.6h-2.1V2h2.1C99.8,2,101,3.2,101,4.6z M94.8,2v2.2H48.5V2H94.8z M47,2.4v5l-6.3-2.5L47,2.4z"/>
	<path class="st0" d="M39.2,27.4c1.3,0,2.4-0.9,2.7-2.1h17.3c-5,2.4-8.5,7.5-8.7,13.2h-1.3c-0.4,0-0.8,0.3-0.8,0.8v4
		c0,0.4,0.3,0.8,0.8,0.8h4c0.4,0,0.8-0.3,0.8-0.8v-4c0-0.4-0.3-0.8-0.8-0.8H52c0.3-6.4,5-11.7,11.2-13v1c0,0.4,0.3,0.8,0.8,0.8h4
		c0.4,0,0.8-0.3,0.8-0.8v-1c6.3,1.2,10.9,6.6,11.3,13h-1.3c-0.4,0-0.8,0.3-0.8,0.8v4c0,0.4,0.3,0.8,0.8,0.8h4c0.4,0,0.8-0.3,0.8-0.8
		v-4c0-0.4-0.3-0.8-0.8-0.8h-1.2c-0.3-5.8-3.7-10.8-8.7-13.2h17.4c0.3,1.2,1.4,2.1,2.7,2.1c1.6,0,2.8-1.3,2.8-2.8
		c0-1.6-1.3-2.8-2.8-2.8c-1.3,0-2.4,0.9-2.7,2.1H68.7v-1.3c0-0.4-0.3-0.8-0.8-0.8h-4c-0.4,0-0.8,0.3-0.8,0.8v1.3H41.9
		c-0.3-1.2-1.4-2.1-2.7-2.1c-1.6,0-2.8,1.3-2.8,2.8C36.3,26.1,37.6,27.4,39.2,27.4z M52.4,42.6h-2.5v-2.5h2.5V42.6z M81.9,42.6h-2.5
		v-2.5h2.5V42.6z M92.8,23.3c0.7,0,1.3,0.6,1.3,1.3c0,0.7-0.6,1.3-1.3,1.3c-0.7,0-1.3-0.6-1.3-1.3S92.1,23.3,92.8,23.3z M67.2,23.3
		v2.5h-2.5v-1.2l0,0l0,0v-1.2L67.2,23.3L67.2,23.3z M39.2,23.3c0.7,0,1.3,0.6,1.3,1.3c0,0.7-0.6,1.3-1.3,1.3s-1.3-0.6-1.3-1.3
		S38.4,23.3,39.2,23.3z"/>
</g>
<text transform="matrix(1 0 0 1 0 143)" style="font-family:'HelveticaNeue-Bold'; font-size:5px;">Created by Creative Stall</text>
<text transform="matrix(1 0 0 1 0 148)" style="font-family:'HelveticaNeue-Bold'; font-size:5px;">from the Noun Project</text>
</svg>
